<mxfile host="Electron" modified="2025-03-16T10:48:03.490Z" agent="Mozilla/5.0 (Windows NT 10.0; Win64; x64) AppleWebKit/537.36 (KHTML, like Gecko) draw.io/22.0.2 Chrome/114.0.5735.289 Electron/25.8.4 Safari/537.36" etag="NKg90OPFMHl2ECIoVxLG" version="22.0.2" type="device">
  <diagram name="Page-1" id="B6ht7hdsYMJA1cn_7bjE">
    <mxGraphModel dx="1349" dy="606" grid="1" gridSize="10" guides="1" tooltips="1" connect="1" arrows="1" fold="1" page="1" pageScale="1" pageWidth="827" pageHeight="1169" math="0" shadow="0">
      <root>
        <mxCell id="0" />
        <mxCell id="1" parent="0" />
        <mxCell id="EMDbq6eZ5B8t_uPj6TfR-3" style="edgeStyle=orthogonalEdgeStyle;rounded=0;orthogonalLoop=1;jettySize=auto;html=1;exitX=0.5;exitY=1;exitDx=0;exitDy=0;entryX=0.5;entryY=0;entryDx=0;entryDy=0;" parent="1" source="EMDbq6eZ5B8t_uPj6TfR-1" target="EMDbq6eZ5B8t_uPj6TfR-2" edge="1">
          <mxGeometry relative="1" as="geometry" />
        </mxCell>
        <mxCell id="EMDbq6eZ5B8t_uPj6TfR-1" value="Dropper" style="ellipse;whiteSpace=wrap;html=1;" parent="1" vertex="1">
          <mxGeometry x="60" y="190" width="90" height="50" as="geometry" />
        </mxCell>
        <mxCell id="EMDbq6eZ5B8t_uPj6TfR-4" style="edgeStyle=orthogonalEdgeStyle;rounded=0;orthogonalLoop=1;jettySize=auto;html=1;exitX=1;exitY=0.5;exitDx=0;exitDy=0;entryX=0;entryY=0.5;entryDx=0;entryDy=0;" parent="1" source="EMDbq6eZ5B8t_uPj6TfR-2" target="EMDbq6eZ5B8t_uPj6TfR-5" edge="1">
          <mxGeometry relative="1" as="geometry">
            <mxPoint x="190" y="290" as="targetPoint" />
          </mxGeometry>
        </mxCell>
        <mxCell id="EMDbq6eZ5B8t_uPj6TfR-29" style="edgeStyle=orthogonalEdgeStyle;rounded=0;orthogonalLoop=1;jettySize=auto;html=1;exitX=0;exitY=0.5;exitDx=0;exitDy=0;entryX=1;entryY=0.5;entryDx=0;entryDy=0;" parent="1" source="EMDbq6eZ5B8t_uPj6TfR-2" target="EMDbq6eZ5B8t_uPj6TfR-12" edge="1">
          <mxGeometry relative="1" as="geometry">
            <mxPoint x="40" y="340" as="targetPoint" />
          </mxGeometry>
        </mxCell>
        <mxCell id="EMDbq6eZ5B8t_uPj6TfR-2" value="Has admin privelages?" style="rhombus;whiteSpace=wrap;html=1;" parent="1" vertex="1">
          <mxGeometry x="60" y="260" width="90" height="60" as="geometry" />
        </mxCell>
        <mxCell id="EMDbq6eZ5B8t_uPj6TfR-31" style="edgeStyle=orthogonalEdgeStyle;rounded=0;orthogonalLoop=1;jettySize=auto;html=1;exitX=0.5;exitY=1;exitDx=0;exitDy=0;entryX=0.5;entryY=1;entryDx=0;entryDy=0;" parent="1" source="EMDbq6eZ5B8t_uPj6TfR-5" target="EMDbq6eZ5B8t_uPj6TfR-2" edge="1">
          <mxGeometry relative="1" as="geometry">
            <Array as="points">
              <mxPoint x="230" y="350" />
              <mxPoint x="105" y="350" />
            </Array>
          </mxGeometry>
        </mxCell>
        <mxCell id="EMDbq6eZ5B8t_uPj6TfR-5" value="ask to run with admin privelages" style="rounded=0;whiteSpace=wrap;html=1;" parent="1" vertex="1">
          <mxGeometry x="190" y="270" width="80" height="40" as="geometry" />
        </mxCell>
        <mxCell id="EMDbq6eZ5B8t_uPj6TfR-7" value="no" style="text;html=1;align=center;verticalAlign=middle;resizable=0;points=[];autosize=1;strokeColor=none;fillColor=none;" parent="1" vertex="1">
          <mxGeometry x="140" y="270" width="40" height="30" as="geometry" />
        </mxCell>
        <mxCell id="EMDbq6eZ5B8t_uPj6TfR-9" value="yes" style="text;html=1;align=center;verticalAlign=middle;resizable=0;points=[];autosize=1;strokeColor=none;fillColor=none;" parent="1" vertex="1">
          <mxGeometry x="20" y="270" width="40" height="30" as="geometry" />
        </mxCell>
        <mxCell id="EMDbq6eZ5B8t_uPj6TfR-16" style="edgeStyle=orthogonalEdgeStyle;rounded=0;orthogonalLoop=1;jettySize=auto;html=1;exitX=0.5;exitY=1;exitDx=0;exitDy=0;entryX=0.5;entryY=0;entryDx=0;entryDy=0;" parent="1" source="EMDbq6eZ5B8t_uPj6TfR-12" target="EMDbq6eZ5B8t_uPj6TfR-15" edge="1">
          <mxGeometry relative="1" as="geometry" />
        </mxCell>
        <mxCell id="EMDbq6eZ5B8t_uPj6TfR-12" value="Create drop folder" style="rounded=0;whiteSpace=wrap;html=1;" parent="1" vertex="1">
          <mxGeometry x="-80" y="270" width="90" height="40" as="geometry" />
        </mxCell>
        <mxCell id="EMDbq6eZ5B8t_uPj6TfR-18" style="edgeStyle=orthogonalEdgeStyle;rounded=0;orthogonalLoop=1;jettySize=auto;html=1;exitX=0.5;exitY=1;exitDx=0;exitDy=0;entryX=0.5;entryY=0;entryDx=0;entryDy=0;" parent="1" source="EMDbq6eZ5B8t_uPj6TfR-15" target="EMDbq6eZ5B8t_uPj6TfR-17" edge="1">
          <mxGeometry relative="1" as="geometry" />
        </mxCell>
        <mxCell id="EMDbq6eZ5B8t_uPj6TfR-15" value="exclude folder from antivirus" style="rounded=0;whiteSpace=wrap;html=1;" parent="1" vertex="1">
          <mxGeometry x="-80" y="330" width="90" height="40" as="geometry" />
        </mxCell>
        <mxCell id="EMDbq6eZ5B8t_uPj6TfR-20" style="edgeStyle=orthogonalEdgeStyle;rounded=0;orthogonalLoop=1;jettySize=auto;html=1;exitX=0.5;exitY=1;exitDx=0;exitDy=0;entryX=0.5;entryY=0;entryDx=0;entryDy=0;" parent="1" source="EMDbq6eZ5B8t_uPj6TfR-17" target="EMDbq6eZ5B8t_uPj6TfR-19" edge="1">
          <mxGeometry relative="1" as="geometry" />
        </mxCell>
        <mxCell id="EMDbq6eZ5B8t_uPj6TfR-17" value="Recreate obfscated malicious B64 code" style="rounded=0;whiteSpace=wrap;html=1;" parent="1" vertex="1">
          <mxGeometry x="-80" y="390" width="90" height="60" as="geometry" />
        </mxCell>
        <mxCell id="EMDbq6eZ5B8t_uPj6TfR-33" style="edgeStyle=orthogonalEdgeStyle;rounded=0;orthogonalLoop=1;jettySize=auto;html=1;exitX=1;exitY=0.5;exitDx=0;exitDy=0;entryX=0;entryY=0.5;entryDx=0;entryDy=0;" parent="1" source="EMDbq6eZ5B8t_uPj6TfR-19" target="EMDbq6eZ5B8t_uPj6TfR-21" edge="1">
          <mxGeometry relative="1" as="geometry" />
        </mxCell>
        <mxCell id="EMDbq6eZ5B8t_uPj6TfR-19" value="Decode malicious B64 payload" style="rounded=0;whiteSpace=wrap;html=1;" parent="1" vertex="1">
          <mxGeometry x="-80" y="470" width="90" height="50" as="geometry" />
        </mxCell>
        <mxCell id="EMDbq6eZ5B8t_uPj6TfR-35" style="edgeStyle=orthogonalEdgeStyle;rounded=0;orthogonalLoop=1;jettySize=auto;html=1;exitX=0.5;exitY=1;exitDx=0;exitDy=0;entryX=0.5;entryY=0;entryDx=0;entryDy=0;" parent="1" source="EMDbq6eZ5B8t_uPj6TfR-21" target="EMDbq6eZ5B8t_uPj6TfR-23" edge="1">
          <mxGeometry relative="1" as="geometry" />
        </mxCell>
        <mxCell id="EMDbq6eZ5B8t_uPj6TfR-21" value="Write malicious code to excluded folder" style="rounded=0;whiteSpace=wrap;html=1;" parent="1" vertex="1">
          <mxGeometry x="40" y="465" width="90" height="60" as="geometry" />
        </mxCell>
        <mxCell id="EMDbq6eZ5B8t_uPj6TfR-27" style="edgeStyle=orthogonalEdgeStyle;rounded=0;orthogonalLoop=1;jettySize=auto;html=1;exitX=0.5;exitY=1;exitDx=0;exitDy=0;entryX=0.5;entryY=0;entryDx=0;entryDy=0;" parent="1" source="EMDbq6eZ5B8t_uPj6TfR-23" target="EMDbq6eZ5B8t_uPj6TfR-26" edge="1">
          <mxGeometry relative="1" as="geometry" />
        </mxCell>
        <mxCell id="EMDbq6eZ5B8t_uPj6TfR-23" value="start a service as admin to run the malicious code &quot;encryptor&quot;" style="rounded=0;whiteSpace=wrap;html=1;" parent="1" vertex="1">
          <mxGeometry x="40" y="550" width="90" height="60" as="geometry" />
        </mxCell>
        <mxCell id="EMDbq6eZ5B8t_uPj6TfR-26" value="END" style="ellipse;whiteSpace=wrap;html=1;" parent="1" vertex="1">
          <mxGeometry x="40" y="640" width="90" height="50" as="geometry" />
        </mxCell>
        <mxCell id="WIJZt7-Jes7Fv6VwbuwY-2" style="edgeStyle=orthogonalEdgeStyle;rounded=0;orthogonalLoop=1;jettySize=auto;html=1;exitX=0.5;exitY=1;exitDx=0;exitDy=0;entryX=0.5;entryY=0;entryDx=0;entryDy=0;" parent="1" source="WIJZt7-Jes7Fv6VwbuwY-1" target="WIJZt7-Jes7Fv6VwbuwY-4" edge="1">
          <mxGeometry relative="1" as="geometry">
            <mxPoint x="545" y="265" as="targetPoint" />
          </mxGeometry>
        </mxCell>
        <mxCell id="WIJZt7-Jes7Fv6VwbuwY-1" value="Encryptor" style="ellipse;whiteSpace=wrap;html=1;" parent="1" vertex="1">
          <mxGeometry x="500" y="190" width="90" height="50" as="geometry" />
        </mxCell>
        <mxCell id="WIJZt7-Jes7Fv6VwbuwY-11" style="edgeStyle=orthogonalEdgeStyle;rounded=0;orthogonalLoop=1;jettySize=auto;html=1;exitX=0.5;exitY=1;exitDx=0;exitDy=0;entryX=0.5;entryY=0;entryDx=0;entryDy=0;" parent="1" source="WIJZt7-Jes7Fv6VwbuwY-4" target="WIJZt7-Jes7Fv6VwbuwY-6" edge="1">
          <mxGeometry relative="1" as="geometry" />
        </mxCell>
        <mxCell id="WIJZt7-Jes7Fv6VwbuwY-4" value="Escalate to Trusted Installer" style="rounded=0;whiteSpace=wrap;html=1;" parent="1" vertex="1">
          <mxGeometry x="500" y="265" width="90" height="40" as="geometry" />
        </mxCell>
        <mxCell id="WIJZt7-Jes7Fv6VwbuwY-13" style="edgeStyle=orthogonalEdgeStyle;rounded=0;orthogonalLoop=1;jettySize=auto;html=1;exitX=0.5;exitY=1;exitDx=0;exitDy=0;entryX=0.5;entryY=0;entryDx=0;entryDy=0;" parent="1" source="WIJZt7-Jes7Fv6VwbuwY-6" target="WIJZt7-Jes7Fv6VwbuwY-7" edge="1">
          <mxGeometry relative="1" as="geometry" />
        </mxCell>
        <mxCell id="WIJZt7-Jes7Fv6VwbuwY-14" style="edgeStyle=orthogonalEdgeStyle;rounded=0;orthogonalLoop=1;jettySize=auto;html=1;exitX=0.5;exitY=1;exitDx=0;exitDy=0;entryX=0.5;entryY=0;entryDx=0;entryDy=0;" parent="1" source="WIJZt7-Jes7Fv6VwbuwY-6" target="WIJZt7-Jes7Fv6VwbuwY-10" edge="1">
          <mxGeometry relative="1" as="geometry" />
        </mxCell>
        <mxCell id="WIJZt7-Jes7Fv6VwbuwY-15" style="edgeStyle=orthogonalEdgeStyle;rounded=0;orthogonalLoop=1;jettySize=auto;html=1;exitX=0.5;exitY=1;exitDx=0;exitDy=0;entryX=0.5;entryY=0;entryDx=0;entryDy=0;" parent="1" source="WIJZt7-Jes7Fv6VwbuwY-6" target="WIJZt7-Jes7Fv6VwbuwY-8" edge="1">
          <mxGeometry relative="1" as="geometry" />
        </mxCell>
        <mxCell id="WIJZt7-Jes7Fv6VwbuwY-16" style="edgeStyle=orthogonalEdgeStyle;rounded=0;orthogonalLoop=1;jettySize=auto;html=1;exitX=0.5;exitY=1;exitDx=0;exitDy=0;entryX=0.5;entryY=0;entryDx=0;entryDy=0;" parent="1" source="WIJZt7-Jes7Fv6VwbuwY-6" target="WIJZt7-Jes7Fv6VwbuwY-9" edge="1">
          <mxGeometry relative="1" as="geometry" />
        </mxCell>
        <mxCell id="WIJZt7-Jes7Fv6VwbuwY-6" value="Modify windows registry to:" style="rounded=0;whiteSpace=wrap;html=1;" parent="1" vertex="1">
          <mxGeometry x="500" y="330" width="90" height="40" as="geometry" />
        </mxCell>
        <mxCell id="WIJZt7-Jes7Fv6VwbuwY-21" style="edgeStyle=orthogonalEdgeStyle;rounded=0;orthogonalLoop=1;jettySize=auto;html=1;exitX=0.5;exitY=1;exitDx=0;exitDy=0;entryX=0.5;entryY=0;entryDx=0;entryDy=0;" parent="1" source="WIJZt7-Jes7Fv6VwbuwY-7" target="WIJZt7-Jes7Fv6VwbuwY-18" edge="1">
          <mxGeometry relative="1" as="geometry" />
        </mxCell>
        <mxCell id="WIJZt7-Jes7Fv6VwbuwY-7" value="Delete shadow copies" style="rounded=0;whiteSpace=wrap;html=1;" parent="1" vertex="1">
          <mxGeometry x="460" y="410" width="80" height="40" as="geometry" />
        </mxCell>
        <mxCell id="WIJZt7-Jes7Fv6VwbuwY-19" style="edgeStyle=orthogonalEdgeStyle;rounded=0;orthogonalLoop=1;jettySize=auto;html=1;exitX=0.5;exitY=1;exitDx=0;exitDy=0;entryX=0.5;entryY=0;entryDx=0;entryDy=0;" parent="1" source="WIJZt7-Jes7Fv6VwbuwY-8" target="WIJZt7-Jes7Fv6VwbuwY-18" edge="1">
          <mxGeometry relative="1" as="geometry" />
        </mxCell>
        <mxCell id="WIJZt7-Jes7Fv6VwbuwY-8" value="Disable Windows firewall" style="rounded=0;whiteSpace=wrap;html=1;" parent="1" vertex="1">
          <mxGeometry x="374" y="410" width="80" height="40" as="geometry" />
        </mxCell>
        <mxCell id="WIJZt7-Jes7Fv6VwbuwY-23" style="edgeStyle=orthogonalEdgeStyle;rounded=0;orthogonalLoop=1;jettySize=auto;html=1;exitX=0.5;exitY=1;exitDx=0;exitDy=0;entryX=0.5;entryY=0;entryDx=0;entryDy=0;" parent="1" source="WIJZt7-Jes7Fv6VwbuwY-9" target="WIJZt7-Jes7Fv6VwbuwY-18" edge="1">
          <mxGeometry relative="1" as="geometry" />
        </mxCell>
        <mxCell id="WIJZt7-Jes7Fv6VwbuwY-9" value="Delete Windows event logs" style="rounded=0;whiteSpace=wrap;html=1;" parent="1" vertex="1">
          <mxGeometry x="640" y="410" width="80" height="40" as="geometry" />
        </mxCell>
        <mxCell id="WIJZt7-Jes7Fv6VwbuwY-22" style="edgeStyle=orthogonalEdgeStyle;rounded=0;orthogonalLoop=1;jettySize=auto;html=1;exitX=0.5;exitY=1;exitDx=0;exitDy=0;entryX=0.5;entryY=0;entryDx=0;entryDy=0;" parent="1" source="WIJZt7-Jes7Fv6VwbuwY-10" target="WIJZt7-Jes7Fv6VwbuwY-18" edge="1">
          <mxGeometry relative="1" as="geometry" />
        </mxCell>
        <mxCell id="WIJZt7-Jes7Fv6VwbuwY-10" value="disable antivirus" style="rounded=0;whiteSpace=wrap;html=1;" parent="1" vertex="1">
          <mxGeometry x="550" y="410" width="80" height="40" as="geometry" />
        </mxCell>
        <mxCell id="WIJZt7-Jes7Fv6VwbuwY-27" style="edgeStyle=orthogonalEdgeStyle;rounded=0;orthogonalLoop=1;jettySize=auto;html=1;exitX=0.5;exitY=1;exitDx=0;exitDy=0;entryX=0.5;entryY=0;entryDx=0;entryDy=0;" parent="1" source="WIJZt7-Jes7Fv6VwbuwY-18" target="WIJZt7-Jes7Fv6VwbuwY-25" edge="1">
          <mxGeometry relative="1" as="geometry" />
        </mxCell>
        <mxCell id="WIJZt7-Jes7Fv6VwbuwY-18" value="start encryption process" style="rounded=0;whiteSpace=wrap;html=1;" parent="1" vertex="1">
          <mxGeometry x="500" y="500" width="90" height="40" as="geometry" />
        </mxCell>
        <mxCell id="WIJZt7-Jes7Fv6VwbuwY-28" style="edgeStyle=orthogonalEdgeStyle;rounded=0;orthogonalLoop=1;jettySize=auto;html=1;exitX=0.5;exitY=1;exitDx=0;exitDy=0;entryX=0.5;entryY=0;entryDx=0;entryDy=0;" parent="1" source="WIJZt7-Jes7Fv6VwbuwY-25" target="WIJZt7-Jes7Fv6VwbuwY-26" edge="1">
          <mxGeometry relative="1" as="geometry" />
        </mxCell>
        <mxCell id="WIJZt7-Jes7Fv6VwbuwY-25" value="Self delete&amp;nbsp;" style="rounded=0;whiteSpace=wrap;html=1;" parent="1" vertex="1">
          <mxGeometry x="500" y="560" width="90" height="40" as="geometry" />
        </mxCell>
        <mxCell id="WIJZt7-Jes7Fv6VwbuwY-26" value="END" style="ellipse;whiteSpace=wrap;html=1;" parent="1" vertex="1">
          <mxGeometry x="500" y="620" width="90" height="50" as="geometry" />
        </mxCell>
        <mxCell id="WIJZt7-Jes7Fv6VwbuwY-31" style="edgeStyle=orthogonalEdgeStyle;rounded=0;orthogonalLoop=1;jettySize=auto;html=1;exitX=0.5;exitY=1;exitDx=0;exitDy=0;entryX=0.5;entryY=0;entryDx=0;entryDy=0;" parent="1" source="WIJZt7-Jes7Fv6VwbuwY-29" target="WIJZt7-Jes7Fv6VwbuwY-30" edge="1">
          <mxGeometry relative="1" as="geometry" />
        </mxCell>
        <mxCell id="WIJZt7-Jes7Fv6VwbuwY-29" value="Encryption process" style="ellipse;whiteSpace=wrap;html=1;" parent="1" vertex="1">
          <mxGeometry x="1050" y="190" width="90" height="50" as="geometry" />
        </mxCell>
        <mxCell id="WIJZt7-Jes7Fv6VwbuwY-35" style="edgeStyle=orthogonalEdgeStyle;rounded=0;orthogonalLoop=1;jettySize=auto;html=1;exitX=0.5;exitY=1;exitDx=0;exitDy=0;entryX=0.5;entryY=0;entryDx=0;entryDy=0;" parent="1" source="WIJZt7-Jes7Fv6VwbuwY-30" target="WIJZt7-Jes7Fv6VwbuwY-34" edge="1">
          <mxGeometry relative="1" as="geometry" />
        </mxCell>
        <mxCell id="WIJZt7-Jes7Fv6VwbuwY-30" value="scan drives A-Z" style="rounded=0;whiteSpace=wrap;html=1;" parent="1" vertex="1">
          <mxGeometry x="1050" y="265" width="90" height="40" as="geometry" />
        </mxCell>
        <mxCell id="WIJZt7-Jes7Fv6VwbuwY-47" style="edgeStyle=orthogonalEdgeStyle;rounded=0;orthogonalLoop=1;jettySize=auto;html=1;exitX=0.5;exitY=1;exitDx=0;exitDy=0;entryX=0.5;entryY=0;entryDx=0;entryDy=0;" parent="1" source="WIJZt7-Jes7Fv6VwbuwY-34" target="WIJZt7-Jes7Fv6VwbuwY-38" edge="1">
          <mxGeometry relative="1" as="geometry" />
        </mxCell>
        <mxCell id="WIJZt7-Jes7Fv6VwbuwY-34" value="Get all files" style="rounded=0;whiteSpace=wrap;html=1;" parent="1" vertex="1">
          <mxGeometry x="1050" y="330" width="90" height="40" as="geometry" />
        </mxCell>
        <mxCell id="WIJZt7-Jes7Fv6VwbuwY-49" style="edgeStyle=orthogonalEdgeStyle;rounded=0;orthogonalLoop=1;jettySize=auto;html=1;exitX=0;exitY=0.5;exitDx=0;exitDy=0;entryX=1;entryY=0.5;entryDx=0;entryDy=0;" parent="1" source="WIJZt7-Jes7Fv6VwbuwY-36" target="WIJZt7-Jes7Fv6VwbuwY-39" edge="1">
          <mxGeometry relative="1" as="geometry" />
        </mxCell>
        <mxCell id="WIJZt7-Jes7Fv6VwbuwY-60" style="edgeStyle=orthogonalEdgeStyle;rounded=0;orthogonalLoop=1;jettySize=auto;html=1;exitX=1;exitY=0.5;exitDx=0;exitDy=0;entryX=0.5;entryY=1;entryDx=0;entryDy=0;" parent="1" source="WIJZt7-Jes7Fv6VwbuwY-36" target="WIJZt7-Jes7Fv6VwbuwY-56" edge="1">
          <mxGeometry relative="1" as="geometry" />
        </mxCell>
        <mxCell id="WIJZt7-Jes7Fv6VwbuwY-36" value="is counter = 100?" style="rhombus;whiteSpace=wrap;html=1;" parent="1" vertex="1">
          <mxGeometry x="1050" y="585" width="90" height="60" as="geometry" />
        </mxCell>
        <mxCell id="WIJZt7-Jes7Fv6VwbuwY-40" style="edgeStyle=orthogonalEdgeStyle;rounded=0;orthogonalLoop=1;jettySize=auto;html=1;exitX=0.5;exitY=1;exitDx=0;exitDy=0;entryX=0.5;entryY=0;entryDx=0;entryDy=0;" parent="1" source="WIJZt7-Jes7Fv6VwbuwY-38" target="WIJZt7-Jes7Fv6VwbuwY-53" edge="1">
          <mxGeometry relative="1" as="geometry">
            <mxPoint x="1094.6666666666665" y="455" as="targetPoint" />
          </mxGeometry>
        </mxCell>
        <mxCell id="WIJZt7-Jes7Fv6VwbuwY-38" value="generate AES key" style="rounded=0;whiteSpace=wrap;html=1;" parent="1" vertex="1">
          <mxGeometry x="1050" y="395" width="90" height="40" as="geometry" />
        </mxCell>
        <mxCell id="WIJZt7-Jes7Fv6VwbuwY-52" style="edgeStyle=orthogonalEdgeStyle;rounded=0;orthogonalLoop=1;jettySize=auto;html=1;exitX=0.5;exitY=1;exitDx=0;exitDy=0;" parent="1" source="WIJZt7-Jes7Fv6VwbuwY-39" edge="1">
          <mxGeometry relative="1" as="geometry">
            <mxPoint x="975.1612903225805" y="659.9999999999999" as="targetPoint" />
          </mxGeometry>
        </mxCell>
        <mxCell id="WIJZt7-Jes7Fv6VwbuwY-39" value="counter +1" style="rounded=0;whiteSpace=wrap;html=1;" parent="1" vertex="1">
          <mxGeometry x="930" y="595" width="90" height="40" as="geometry" />
        </mxCell>
        <mxCell id="WIJZt7-Jes7Fv6VwbuwY-42" style="edgeStyle=orthogonalEdgeStyle;rounded=0;orthogonalLoop=1;jettySize=auto;html=1;exitX=0.5;exitY=1;exitDx=0;exitDy=0;entryX=0.5;entryY=0;entryDx=0;entryDy=0;" parent="1" source="WIJZt7-Jes7Fv6VwbuwY-41" target="WIJZt7-Jes7Fv6VwbuwY-36" edge="1">
          <mxGeometry relative="1" as="geometry" />
        </mxCell>
        <mxCell id="WIJZt7-Jes7Fv6VwbuwY-41" value="create footer" style="rounded=0;whiteSpace=wrap;html=1;" parent="1" vertex="1">
          <mxGeometry x="1050" y="525" width="90" height="40" as="geometry" />
        </mxCell>
        <mxCell id="WIJZt7-Jes7Fv6VwbuwY-48" value="Yes" style="text;html=1;align=center;verticalAlign=middle;resizable=0;points=[];autosize=1;strokeColor=none;fillColor=none;" parent="1" vertex="1">
          <mxGeometry x="1140" y="595" width="40" height="30" as="geometry" />
        </mxCell>
        <mxCell id="WIJZt7-Jes7Fv6VwbuwY-51" value="No" style="text;html=1;align=center;verticalAlign=middle;resizable=0;points=[];autosize=1;strokeColor=none;fillColor=none;" parent="1" vertex="1">
          <mxGeometry x="1020" y="595" width="40" height="30" as="geometry" />
        </mxCell>
        <mxCell id="WIJZt7-Jes7Fv6VwbuwY-54" style="edgeStyle=orthogonalEdgeStyle;rounded=0;orthogonalLoop=1;jettySize=auto;html=1;exitX=0.5;exitY=1;exitDx=0;exitDy=0;entryX=0.5;entryY=0;entryDx=0;entryDy=0;" parent="1" source="WIJZt7-Jes7Fv6VwbuwY-53" target="WIJZt7-Jes7Fv6VwbuwY-41" edge="1">
          <mxGeometry relative="1" as="geometry" />
        </mxCell>
        <mxCell id="WIJZt7-Jes7Fv6VwbuwY-53" value="encrypt AES key with A&lt;font style=&quot;font-size: 9px;&quot;&gt;pub&lt;/font&gt;" style="rounded=0;whiteSpace=wrap;html=1;" parent="1" vertex="1">
          <mxGeometry x="1050" y="460" width="90" height="40" as="geometry" />
        </mxCell>
        <mxCell id="WIJZt7-Jes7Fv6VwbuwY-61" style="edgeStyle=orthogonalEdgeStyle;rounded=0;orthogonalLoop=1;jettySize=auto;html=1;exitX=0.5;exitY=0;exitDx=0;exitDy=0;entryX=1;entryY=0.5;entryDx=0;entryDy=0;" parent="1" source="WIJZt7-Jes7Fv6VwbuwY-56" target="WIJZt7-Jes7Fv6VwbuwY-38" edge="1">
          <mxGeometry relative="1" as="geometry" />
        </mxCell>
        <mxCell id="WIJZt7-Jes7Fv6VwbuwY-56" value="delete AES key in memory" style="rounded=0;whiteSpace=wrap;html=1;" parent="1" vertex="1">
          <mxGeometry x="1180" y="485" width="90" height="40" as="geometry" />
        </mxCell>
        <mxCell id="WIJZt7-Jes7Fv6VwbuwY-62" style="edgeStyle=orthogonalEdgeStyle;rounded=0;orthogonalLoop=1;jettySize=auto;html=1;exitX=0.5;exitY=1;exitDx=0;exitDy=0;entryX=0.5;entryY=0;entryDx=0;entryDy=0;" parent="1" source="WIJZt7-Jes7Fv6VwbuwY-58" target="WIJZt7-Jes7Fv6VwbuwY-59" edge="1">
          <mxGeometry relative="1" as="geometry" />
        </mxCell>
        <mxCell id="WIJZt7-Jes7Fv6VwbuwY-58" value="encrypt file and add footer + .encr extension" style="rounded=0;whiteSpace=wrap;html=1;" parent="1" vertex="1">
          <mxGeometry x="930" y="660" width="90" height="50" as="geometry" />
        </mxCell>
        <mxCell id="WIJZt7-Jes7Fv6VwbuwY-66" style="edgeStyle=orthogonalEdgeStyle;rounded=0;orthogonalLoop=1;jettySize=auto;html=1;exitX=1;exitY=0.5;exitDx=0;exitDy=0;entryX=0;entryY=0.5;entryDx=0;entryDy=0;" parent="1" source="WIJZt7-Jes7Fv6VwbuwY-59" target="WIJZt7-Jes7Fv6VwbuwY-64" edge="1">
          <mxGeometry relative="1" as="geometry" />
        </mxCell>
        <mxCell id="WIJZt7-Jes7Fv6VwbuwY-59" value="delete original file" style="rounded=0;whiteSpace=wrap;html=1;" parent="1" vertex="1">
          <mxGeometry x="930" y="730" width="90" height="40" as="geometry" />
        </mxCell>
        <mxCell id="WIJZt7-Jes7Fv6VwbuwY-67" style="edgeStyle=orthogonalEdgeStyle;rounded=0;orthogonalLoop=1;jettySize=auto;html=1;exitX=0.5;exitY=0;exitDx=0;exitDy=0;entryX=0.5;entryY=1;entryDx=0;entryDy=0;" parent="1" source="WIJZt7-Jes7Fv6VwbuwY-64" target="WIJZt7-Jes7Fv6VwbuwY-36" edge="1">
          <mxGeometry relative="1" as="geometry" />
        </mxCell>
        <mxCell id="WIJZt7-Jes7Fv6VwbuwY-68" style="edgeStyle=orthogonalEdgeStyle;rounded=0;orthogonalLoop=1;jettySize=auto;html=1;exitX=1;exitY=0.5;exitDx=0;exitDy=0;entryX=0;entryY=0.5;entryDx=0;entryDy=0;" parent="1" source="WIJZt7-Jes7Fv6VwbuwY-64" target="D6hVjPzrcXzmrlwd7gVk-5" edge="1">
          <mxGeometry relative="1" as="geometry">
            <mxPoint x="1180" y="750" as="targetPoint" />
          </mxGeometry>
        </mxCell>
        <mxCell id="WIJZt7-Jes7Fv6VwbuwY-64" value="all files encrypted?" style="rhombus;whiteSpace=wrap;html=1;" parent="1" vertex="1">
          <mxGeometry x="1050" y="720" width="90" height="60" as="geometry" />
        </mxCell>
        <mxCell id="WIJZt7-Jes7Fv6VwbuwY-69" value="END" style="ellipse;whiteSpace=wrap;html=1;" parent="1" vertex="1">
          <mxGeometry x="1180" y="790" width="90" height="50" as="geometry" />
        </mxCell>
        <mxCell id="D6hVjPzrcXzmrlwd7gVk-1" value="No" style="text;html=1;align=center;verticalAlign=middle;resizable=0;points=[];autosize=1;strokeColor=none;fillColor=none;" vertex="1" parent="1">
          <mxGeometry x="1090" y="695" width="40" height="30" as="geometry" />
        </mxCell>
        <mxCell id="D6hVjPzrcXzmrlwd7gVk-4" value="Yes" style="text;html=1;align=center;verticalAlign=middle;resizable=0;points=[];autosize=1;strokeColor=none;fillColor=none;" vertex="1" parent="1">
          <mxGeometry x="1130" y="730" width="40" height="30" as="geometry" />
        </mxCell>
        <mxCell id="D6hVjPzrcXzmrlwd7gVk-6" style="edgeStyle=orthogonalEdgeStyle;rounded=0;orthogonalLoop=1;jettySize=auto;html=1;exitX=0.5;exitY=1;exitDx=0;exitDy=0;entryX=0.5;entryY=0;entryDx=0;entryDy=0;" edge="1" parent="1" source="D6hVjPzrcXzmrlwd7gVk-5" target="WIJZt7-Jes7Fv6VwbuwY-69">
          <mxGeometry relative="1" as="geometry" />
        </mxCell>
        <mxCell id="D6hVjPzrcXzmrlwd7gVk-5" value="show ransomnote" style="rounded=0;whiteSpace=wrap;html=1;" vertex="1" parent="1">
          <mxGeometry x="1180" y="730" width="90" height="40" as="geometry" />
        </mxCell>
      </root>
    </mxGraphModel>
  </diagram>
</mxfile>
